<svg width="20" height="20" viewBox="0 0 20 20" fill="none" xmlns="http://www.w3.org/2000/svg">
<path d="M17.5705 8.0405C17.8852 5.93914 16.2842 4.80927 14.0966 4.05534L14.8064 1.20808L13.074 0.776981L12.3822 3.54905C11.927 3.43477 11.4598 3.32848 10.9937 3.22222L11.6904 0.432102L9.95802 0L9.2482 2.84625C8.87125 2.76003 8.5003 2.67583 8.14139 2.58559L8.14339 2.57656L5.7533 1.98005L5.29212 3.83077C5.29212 3.83077 6.57841 4.12552 6.55133 4.14356C7.25313 4.31902 7.37944 4.7832 7.35839 5.15214L6.55033 8.39541C6.59845 8.40744 6.66061 8.42548 6.7308 8.45255L6.54733 8.40744L5.41444 12.951C5.32822 13.1636 5.11066 13.4834 4.61941 13.3621C4.63745 13.3871 3.36019 13.0483 3.36019 13.0483L2.5 15.0313L4.75575 15.5938C5.17483 15.6991 5.58588 15.8094 5.98991 15.9125L5.27308 18.7919L7.00449 19.223L7.7143 16.3758C8.1875 16.5031 8.64667 16.6214 9.09583 16.7336L8.38802 19.5689L10.1204 20L10.8373 17.1267C13.7928 17.6861 16.0145 17.4605 16.9498 14.7877C17.7038 12.6362 16.9128 11.3941 15.3578 10.585C16.4906 10.3243 17.3428 9.57942 17.5705 8.0405ZM13.6103 13.5927C13.076 15.7452 9.45174 14.5812 8.27673 14.2894L9.22916 10.4747C10.4042 10.7685 14.1708 11.3489 13.6103 13.5927ZM14.1467 8.00942C13.6585 9.96742 10.6428 8.97188 9.66527 8.72825L10.5275 5.26944C11.505 5.51306 14.656 5.96722 14.1467 8.00942Z" fill="#11B3FE"/>
</svg>
