<svg width="20" height="20" viewBox="0 0 20 20" fill="none" xmlns="http://www.w3.org/2000/svg">
<g clip-path="url(#clip0_8_180)">
<path d="M9.99764 0C4.47711 0 -0.00701959 4.48323 8.24961e-06 9.9987C0.00139252 11.1022 0.177355 12.1636 0.50761 13.1565H3.49913V4.74512L9.99764 11.2436L16.4958 4.74512V13.1567H19.488C19.8187 12.1639 19.9938 11.1024 19.9958 9.99886C20.0052 4.47764 15.5188 0.00133103 9.99764 0.00133103V0Z" fill="#11B3FE"/>
<path d="M8.50312 12.7378L5.66713 9.90161V15.1945H3.49888L1.45288 15.1949C3.20787 18.0742 6.37955 20.0002 9.9976 20.0002C13.6157 20.0002 16.7875 18.0737 18.5428 15.1945H14.3274V9.90161L11.4913 12.7378L9.99728 14.2318L8.50323 12.7378H8.50312Z" fill="#11B3FE"/>
</g>
<defs>
<clipPath id="clip0_8_180">
<rect width="20" height="20" rx="10" fill="white"/>
</clipPath>
</defs>
</svg>
